<svg xmlns="http://www.w3.org/2000/svg" viewBox="0 0 64 64" width="64" height="64">
  <!-- Background circle -->
  <circle cx="32" cy="32" r="32" fill="#0056B3"/>
  <!-- Tooth shape in white -->
  <path d="M32 10
    C26 10 20 14 19 20
    C18 25 19 29 20 32
    C21 36 21 40 20 46
    C19.5 49 20 53 23 54
    C26 55 27 52 28 49
    C29 46 30 44 32 44
    C34 44 35 46 36 49
    C37 52 38 55 41 54
    C44 53 44.5 49 44 46
    C43 40 43 36 44 32
    C45 29 46 25 45 20
    C44 14 38 10 32 10Z"
    fill="white"
    stroke="white"
    stroke-width="0.5"
  />
  <!-- Shine highlight -->
  <ellipse cx="27" cy="20" rx="3" ry="5" fill="#0077cc" opacity="0.3" transform="rotate(-15 27 20)"/>
</svg>
